<svg xmlns="http://www.w3.org/2000/svg" version="1.1" xmlns:xlink="http://www.w3.org/1999/xlink" xmlns:svgjs="http://svgjs.com/svgjs" width="1440" height="560" preserveAspectRatio="none" viewBox="0 0 1440 560"><g mask="url(&quot;#SvgjsMask1810&quot;)" fill="none"><rect width="1440" height="560" x="0" y="0" fill="url(#SvgjsLinearGradient1811)"></rect><path d="M1138.7134275716965 178.16364736481268L1299.2479894400944 221.17875357473412 1342.263095650016 60.64419170633602 1181.728533781618 17.629085496414575z" fill="rgba(28, 83, 142, 0.4)" class="triangle-float1"></path><path d="M380.1267887862196 300.9742435323752L344.4972645427411 404.44989540669997 447.9729164170658 440.07941965017847 483.6024406605443 336.6037677758537z" fill="rgba(28, 83, 142, 0.4)" class="triangle-float3"></path><path d="M261.00865043087344 519.7417251952361L305.10198281057 420.706479186456 134.50244760755163 404.0841036213012z" fill="rgba(28, 83, 142, 0.4)" class="triangle-float3"></path><path d="M1269.887700133024 151.15088091522483L1237.8963193790107 52.69153503709245 1139.4369735008781 84.6829157911059 1171.4283542548917 183.14226166923828z" fill="rgba(28, 83, 142, 0.4)" class="triangle-float3"></path><path d="M612.527,612.429C649.545,612.457,681.441,587.779,698.839,555.104C715.207,524.365,714.106,486.766,694.912,457.708C677.417,431.223,644.264,425.029,612.527,424.441C579.356,423.827,542.947,426.858,524.682,454.555C504.928,484.509,508.999,523.618,526.445,554.972C544.424,587.283,575.551,612.401,612.527,612.429" fill="rgba(28, 83, 142, 0.4)" class="triangle-float3"></path><path d="M231.44 14.87 a116.73 116.73 0 1 0 233.46 0 a116.73 116.73 0 1 0 -233.46 0z" fill="rgba(28, 83, 142, 0.4)" class="triangle-float1"></path><path d="M222.24660884617953 286.2900776802967L78.77533116665077 276.2575886267051 68.7428421130592 419.72886630623384 212.21411979258795 429.7613553598254z" fill="rgba(28, 83, 142, 0.4)" class="triangle-float1"></path><path d="M337.21728367130106 224.2147500452569L157.51843800584692 278.9669906582501 275.64466012469495 393.0401573687887z" fill="rgba(28, 83, 142, 0.4)" class="triangle-float3"></path><path d="M164.548,228.324C210.672,226.97,240.851,185.854,264.033,145.956C287.368,105.794,309.248,58.602,286.78,17.948C263.825,-23.588,212.003,-34.477,164.548,-34.055C117.996,-33.642,69.726,-19.981,46.021,20.086C21.955,60.762,31.025,111.036,54.404,152.11C78.076,193.698,116.716,229.728,164.548,228.324" fill="rgba(28, 83, 142, 0.4)" class="triangle-float1"></path><path d="M1164.647155230858 414.94757459920424L1321.6353930794435 360.8921893462505 1267.58000782649 203.90395149766502 1110.5917699779043 257.9593367506187z" fill="rgba(28, 83, 142, 0.4)" class="triangle-float2"></path></g><defs><mask id="SvgjsMask1810"><rect width="1440" height="560" fill="#ffffff"></rect></mask><linearGradient x1="15.28%" y1="-39.29%" x2="84.72%" y2="139.29%" gradientUnits="userSpaceOnUse" id="SvgjsLinearGradient1811"><stop stop-color="rgba(14, 42, 71, 1)" offset="0.23"></stop><stop stop-color="rgba(0, 91, 209, 1)" offset="0.76"></stop></linearGradient><style>
            @keyframes float1 {
                0%{transform: translate(0, 0)}
                50%{transform: translate(-10px, 0)}
                100%{transform: translate(0, 0)}
            }

            .triangle-float1 {
                animation: float1 5s infinite;
            }

            @keyframes float2 {
                0%{transform: translate(0, 0)}
                50%{transform: translate(-5px, -5px)}
                100%{transform: translate(0, 0)}
            }

            .triangle-float2 {
                animation: float2 4s infinite;
            }

            @keyframes float3 {
                0%{transform: translate(0, 0)}
                50%{transform: translate(0, -10px)}
                100%{transform: translate(0, 0)}
            }

            .triangle-float3 {
                animation: float3 6s infinite;
            }
        </style></defs></svg>